<svg width="113" height="50" viewBox="0 0 113 50" fill="none" xmlns="http://www.w3.org/2000/svg">
<path d="M2.57139 25.3776C2.4934 25.3152 2.41769 25.2547 2.34438 25.1963C2.39908 25.1477 2.45521 25.0978 2.51271 25.0467C3.46524 24.1997 4.7977 23.002 6.31908 21.5979C9.35531 18.7957 13.1697 15.1479 16.2178 11.8177C16.9654 11.0008 17.6404 10.2488 18.263 9.55513C20.2179 7.377 21.6572 5.77349 23.2123 4.54072C25.1409 3.01186 27.2313 2.08569 30.7458 1.66248C31.6266 1.55642 32.8217 1.55291 33.847 1.58255C34.349 1.59706 34.7914 1.61885 35.1079 1.637C35.2659 1.64607 35.3919 1.65419 35.4776 1.65998L35.5746 1.66673L35.5983 1.66846L35.6036 1.66886L35.6045 1.66892L35.6046 1.66893L35.6047 1.66894L35.6625 1.67333L35.7206 1.67324L76.7841 1.60793L76.8405 1.60784L76.8965 1.60353L76.8966 1.60353L76.8968 1.60352L76.8976 1.60345L76.9029 1.60305L76.9266 1.6013L77.0236 1.59448C77.1092 1.58863 77.2351 1.58043 77.3931 1.57127C77.7095 1.55292 78.1518 1.53089 78.6536 1.51622C79.6789 1.48626 80.8729 1.48986 81.7522 1.59693C88.0762 2.36708 90.8647 5.66479 95.0746 10.6436C95.4531 11.0912 95.8432 11.5524 96.2483 12.0266C98.914 15.1472 102.768 18.6323 105.911 21.3069C107.49 22.6515 108.907 23.8049 109.929 24.6224C110.007 24.6848 110.082 24.7453 110.156 24.8037C110.101 24.8523 110.045 24.9021 109.987 24.9533C109.035 25.8003 107.702 26.998 106.181 28.4021C103.145 31.2043 99.3303 34.8521 96.2822 38.1823C95.5346 38.9991 94.8596 39.7511 94.237 40.4448C92.2821 42.623 90.8428 44.2265 89.2877 45.4593C87.3591 46.9881 85.2687 47.9143 81.7542 48.3375C80.8734 48.4436 79.6783 48.4471 78.653 48.4174C78.151 48.4029 77.7086 48.3811 77.3921 48.363C77.2341 48.3539 77.1081 48.3458 77.0225 48.34L76.9254 48.3333L76.9017 48.3315L76.8964 48.3311L76.8955 48.3311L76.8954 48.3311L76.8953 48.3311L76.8375 48.3267L76.7794 48.3268L35.7159 48.3921L35.6595 48.3922L35.6035 48.3965L35.6034 48.3965L35.6032 48.3965L35.6024 48.3965L35.5971 48.3969L35.5734 48.3987L35.4764 48.4055C35.3908 48.4114 35.2648 48.4196 35.1069 48.4287C34.7905 48.4471 34.3482 48.4691 33.8464 48.4838C32.8211 48.5137 31.6271 48.5101 30.7478 48.4031C24.4238 47.6329 21.6353 44.3352 17.4254 39.3565C17.0469 38.9088 16.6568 38.4476 16.2517 37.9734C13.586 34.8528 9.73204 31.3677 6.58948 28.6931C5.00957 27.3485 3.59318 26.1951 2.57139 25.3776Z" fill="#F99B1C" stroke="#7595C5" stroke-width="3"/>
</svg>
