<svg width="113" height="50" viewBox="0 0 113 50" fill="none" xmlns="http://www.w3.org/2000/svg">
<path d="M2.79148 25.3776C2.71349 25.3152 2.63779 25.2547 2.56447 25.1963C2.61918 25.1477 2.6753 25.0978 2.73281 25.0467C3.68533 24.1997 5.01779 23.002 6.53917 21.5979C9.5754 18.7957 13.3898 15.1479 16.4379 11.8177C17.1855 11.0008 17.8605 10.2488 18.4831 9.55513C20.438 7.377 21.8772 5.77349 23.4324 4.54072C25.361 3.01186 27.4514 2.08569 30.9659 1.66248C31.8467 1.55642 33.0418 1.55291 34.0671 1.58255C34.5691 1.59706 35.0115 1.61885 35.328 1.637C35.486 1.64607 35.612 1.65419 35.6976 1.65998L35.7947 1.66673L35.8184 1.66846L35.8237 1.66886L35.8246 1.66892L35.8247 1.66893L35.8248 1.66894L35.8826 1.67333L35.9407 1.67324L77.0042 1.60793L77.0606 1.60784L77.1166 1.60353L77.1167 1.60353L77.1168 1.60352L77.1177 1.60345L77.123 1.60305L77.1467 1.6013L77.2437 1.59448C77.3293 1.58863 77.4552 1.58043 77.6132 1.57127C77.9296 1.55292 78.3719 1.53089 78.8737 1.51622C79.8989 1.48626 81.093 1.48986 81.9723 1.59693C88.2963 2.36708 91.0848 5.66479 95.2947 10.6436C95.6732 11.0912 96.0632 11.5524 96.4684 12.0266C99.1341 15.1472 102.988 18.6323 106.131 21.3069C107.711 22.6515 109.127 23.8049 110.149 24.6224C110.227 24.6848 110.302 24.7453 110.376 24.8037C110.321 24.8523 110.265 24.9021 110.207 24.9533C109.255 25.8003 107.922 26.998 106.401 28.4021C103.365 31.2043 99.5504 34.8521 96.5023 38.1823C95.7547 38.9991 95.0797 39.7511 94.4571 40.4448C92.5022 42.623 91.0629 44.2265 89.5078 45.4593C87.5792 46.9881 85.4888 47.9143 81.9743 48.3375C81.0935 48.4436 79.8984 48.4471 78.8731 48.4174C78.3711 48.4029 77.9287 48.3811 77.6122 48.363C77.4542 48.3539 77.3282 48.3458 77.2425 48.34L77.1455 48.3333L77.1218 48.3315L77.1164 48.3311L77.1156 48.3311L77.1155 48.3311L77.1154 48.3311L77.0576 48.3267L76.9994 48.3268L35.936 48.3921L35.8796 48.3922L35.8236 48.3965L35.8235 48.3965L35.8233 48.3965L35.8225 48.3965L35.8172 48.3969L35.7935 48.3987L35.6965 48.4055C35.6109 48.4114 35.4849 48.4196 35.327 48.4287C35.0106 48.4471 34.5683 48.4691 34.0665 48.4838C33.0412 48.5137 31.8472 48.5101 30.9679 48.4031C24.6439 47.6329 21.8554 44.3352 17.6455 39.3565C17.2669 38.9088 16.8769 38.4476 16.4718 37.9734C13.8061 34.8528 9.95213 31.3677 6.80957 28.6931C5.22967 27.3485 3.81327 26.1951 2.79148 25.3776Z" fill="black" stroke="#7595C5" stroke-width="3"/>
</svg>
