<svg width="53" height="80" viewBox="0 0 53 80" fill="none" xmlns="http://www.w3.org/2000/svg">
<path d="M50.7192 78.3719C50.3615 78.3908 49.9514 78.4092 49.5098 78.4234C48.0125 78.4715 46.2405 78.4671 44.9181 78.2903C35.4678 77.0262 31.2443 71.5376 25.1184 63.5768C24.564 62.8564 23.9941 62.1157 23.4033 61.3561C19.5647 56.4207 13.9927 50.8833 9.42215 46.6108C7.12892 44.4672 5.07274 42.6281 3.58946 41.3246C3.15824 40.9456 2.77528 40.6118 2.44882 40.3287C2.74368 40.043 3.08781 39.7085 3.47511 39.3302C4.85915 37.9784 6.79549 36.0667 9.00631 33.8257C13.4219 29.3497 18.9563 23.5358 23.3716 18.2373C24.4392 16.9562 25.4095 15.7686 26.3097 14.6668C29.171 11.165 31.3241 8.52982 33.6413 6.5123C36.5636 3.96794 39.7186 2.45146 44.9159 1.76406C46.2401 1.58892 48.0131 1.5847 49.5105 1.63224C49.9518 1.64625 50.3617 1.66447 50.7192 1.68311V78.3719Z" fill="black" stroke="#7595C5" stroke-width="3"/>
</svg>
